<?xml version="1.0" standalone="no"?>
<!DOCTYPE svg PUBLIC "-//W3C//DTD SVG 20010904//EN"
 "http://www.w3.org/TR/2001/REC-SVG-20010904/DTD/svg10.dtd">
<svg version="1.0" xmlns="http://www.w3.org/2000/svg"
 width="800.000000pt" height="600.000000pt" viewBox="0 0 800.000000 600.000000"
 preserveAspectRatio="xMidYMid meet">
<metadata>
Created by potrace 1.15, written by Peter Selinger 2001-2017
</metadata>
<g transform="translate(0.000000,600.000000) scale(0.100000,-0.100000)"
fill="#000000" stroke="none">
<path d="M4655 4866 c-112 -35 -175 -102 -195 -207 -16 -82 2 -170 60 -285
l49 -97 -87 7 c-239 18 -444 101 -787 320 -327 209 -435 255 -626 263 -190 9
-332 -29 -485 -129 -76 -49 -222 -186 -278 -260 -47 -63 -32 -145 32 -169 51
-20 76 -4 209 129 108 109 140 135 203 165 98 48 176 67 272 67 160 0 260 -41
553 -227 105 -67 233 -144 285 -171 272 -145 538 -209 765 -183 l106 12 87
-66 c48 -36 137 -90 197 -120 194 -96 337 -133 546 -142 l136 -6 32 29 c39 35
45 86 17 128 -23 36 -54 46 -145 46 -198 0 -487 91 -617 195 l-27 22 56 37
c74 49 159 142 190 209 96 203 -17 380 -275 432 -92 18 -217 19 -273 1z m298
-216 c76 -28 94 -56 78 -112 -17 -54 -100 -137 -179 -177 l-61 -31 -30 37
c-66 80 -118 210 -104 261 3 13 17 29 32 38 38 21 188 13 264 -16z"/>
<path d="M2929 4216 c-46 -32 -58 -60 -130 -326 -42 -154 -59 -235 -56 -258 8
-47 41 -96 79 -115 31 -16 1088 -310 1093 -305 1 2 28 98 60 213 32 116 77
280 100 365 38 138 41 156 26 162 -9 4 -247 71 -529 148 -324 89 -530 140
-560 140 -34 0 -58 -7 -83 -24z"/>
<path d="M4327 3502 c-53 -196 -97 -362 -97 -368 0 -6 28 -19 63 -28 34 -9
127 -34 207 -56 530 -148 801 -220 829 -220 39 0 77 19 113 57 19 20 35 59 57
138 16 61 46 167 65 237 39 139 43 173 22 221 -30 70 -30 70 -603 229 -296 81
-542 148 -548 148 -5 0 -54 -161 -108 -358z"/>
<path d="M2750 2778 c-24 -13 -53 -36 -64 -51 -21 -28 -21 -38 -24 -881 l-2
-853 23 -34 c12 -18 38 -44 56 -56 l34 -23 458 0 459 0 0 960 0 960 -448 0
c-445 0 -448 0 -492 -22z"/>
<path d="M4017 2529 c-4 -150 -7 -582 -7 -961 l0 -688 464 0 463 0 34 23 c18
12 44 38 56 56 l23 34 -2 853 c-3 843 -3 853 -24 880 -11 15 -33 37 -48 48
-27 20 -41 21 -490 24 l-463 3 -6 -272z"/>
</g>
</svg>
