<?xml version="1.0" standalone="no"?>
<!DOCTYPE svg PUBLIC "-//W3C//DTD SVG 20010904//EN"
 "http://www.w3.org/TR/2001/REC-SVG-20010904/DTD/svg10.dtd">
<svg version="1.0" xmlns="http://www.w3.org/2000/svg"
 width="428.000000pt" height="426.000000pt" viewBox="0 0 428.000000 426.000000"
 preserveAspectRatio="xMidYMid meet">
<metadata>
Created by potrace 1.15, written by Peter Selinger 2001-2017
</metadata>
<g transform="translate(0.000000,426.000000) scale(0.100000,-0.100000)"
fill="#000000" stroke="none">
<path d="M0 2130 l0 -2130 2140 0 2140 0 0 2130 0 2130 -2140 0 -2140 0 0
-2130z m2185 1309 c53 -15 129 -91 144 -144 6 -22 11 -65 11 -96 l0 -55 58
-18 c119 -37 211 -95 307 -191 104 -104 150 -181 200 -330 47 -142 55 -232 55
-650 l0 -370 135 -135 135 -135 0 -72 0 -73 -1100 0 -1100 0 0 73 0 72 135
135 135 135 0 370 c0 420 8 508 56 653 47 144 100 231 203 332 91 91 188 150
304 186 l57 18 0 55 c0 31 5 74 11 95 20 73 121 154 194 156 11 0 38 -5 60
-11z m217 -2439 c-5 -54 -49 -136 -94 -174 -124 -106 -315 -80 -405 55 -27 41
-57 135 -47 150 3 5 127 8 277 7 l272 -3 -3 -35z"/>
</g>
</svg>
