<?xml version="1.0" standalone="no"?>
<!DOCTYPE svg PUBLIC "-//W3C//DTD SVG 20010904//EN"
 "http://www.w3.org/TR/2001/REC-SVG-20010904/DTD/svg10.dtd">
<svg version="1.0" xmlns="http://www.w3.org/2000/svg"
 width="225.000000pt" height="225.000000pt" viewBox="0 0 225.000000 225.000000"
 preserveAspectRatio="xMidYMid meet">
<metadata>
Created by potrace 1.15, written by Peter Selinger 2001-2017
</metadata>
<g transform="translate(0.000000,225.000000) scale(0.100000,-0.100000)"
fill="#000000" stroke="none">
<path d="M594 2240 c-12 -4 -31 -21 -44 -37 -19 -24 -21 -36 -16 -83 21 -204
180 -447 351 -536 l52 -28 5 -739 c5 -714 6 -740 25 -766 31 -42 69 -56 114
-42 21 6 47 23 58 38 20 25 21 37 21 419 0 344 2 395 16 408 18 19 20 19 45 6
18 -10 19 -25 19 -396 0 -431 1 -441 64 -471 30 -14 41 -15 76 -4 71 21 70 15
70 492 l0 422 65 60 c76 69 107 112 166 226 38 76 41 86 36 138 -9 85 -103
268 -176 343 -80 81 -123 94 -316 95 -82 0 -181 -4 -218 -8 l-69 -8 -57 60
c-68 70 -123 175 -147 277 -23 100 -32 120 -60 133 -29 13 -50 13 -80 1z m921
-828 c14 -34 25 -69 25 -78 0 -19 -45 -111 -70 -144 -20 -25 -20 -25 -20 155
l0 180 20 -25 c11 -14 31 -53 45 -88z"/>
<path d="M1130 2174 c-69 -30 -110 -93 -110 -169 0 -102 78 -180 179 -179 102
0 171 61 179 159 6 69 -1 96 -35 136 -52 62 -141 84 -213 53z"/>
</g>
</svg>
