<?xml version="1.0" standalone="no"?>
<!DOCTYPE svg PUBLIC "-//W3C//DTD SVG 20010904//EN"
 "http://www.w3.org/TR/2001/REC-SVG-20010904/DTD/svg10.dtd">
<svg version="1.0" xmlns="http://www.w3.org/2000/svg"
 width="626.000000pt" height="626.000000pt" viewBox="0 0 626.000000 626.000000"
 preserveAspectRatio="xMidYMid meet">
<metadata>
Created by potrace 1.15, written by Peter Selinger 2001-2017
</metadata>
<g transform="translate(0.000000,626.000000) scale(0.100000,-0.100000)"
fill="#000000" stroke="none">
<path d="M3100 3130 l0 -3130 215 0 215 0 0 3130 0 3130 -215 0 -215 0 0
-3130z"/>
<path d="M1314 5896 c-87 -20 -155 -58 -219 -121 -87 -88 -125 -181 -125 -310
0 -129 43 -230 133 -310 90 -81 179 -115 307 -115 134 0 234 42 314 131 208
231 117 611 -171 713 -63 22 -169 27 -239 12z"/>
<path d="M4941 5895 c-187 -41 -331 -223 -331 -420 0 -239 167 -421 398 -433
159 -9 277 38 368 145 146 171 136 432 -21 586 -67 66 -156 113 -240 127 -75
12 -95 12 -174 -5z"/>
<path d="M4410 4901 c-182 -50 -328 -194 -396 -391 -18 -52 -19 -96 -19 -815
0 -845 -4 -795 67 -848 97 -73 226 -53 282 43 20 34 21 52 26 680 l5 645 48 3
47 3 0 -1704 c0 -1871 -3 -1767 60 -1834 89 -95 197 -123 308 -82 45 17 100
71 126 124 l26 54 0 1005 0 1006 55 0 55 0 2 -1012 c3 -972 4 -1015 22 -1051
43 -88 129 -140 231 -141 33 0 76 5 96 12 44 15 109 77 135 128 19 38 19 84
22 1767 l2 1727 50 0 50 0 2 -648 3 -648 25 -37 c36 -52 93 -81 160 -81 71 0
121 25 157 77 l28 42 0 770 0 770 -23 67 c-44 128 -148 256 -259 318 -30 17
-89 40 -131 51 -70 18 -113 19 -636 18 -504 0 -568 -2 -626 -18z"/>
<path d="M970 4899 c-111 -22 -259 -130 -336 -246 -47 -71 -101 -227 -225
-653 -17 -58 -40 -134 -51 -170 -42 -137 -131 -447 -143 -500 -8 -30 -21 -75
-29 -99 -9 -24 -16 -58 -16 -75 0 -69 58 -134 140 -156 58 -16 130 10 163 57
22 33 80 205 161 483 14 47 53 180 86 295 34 116 73 248 87 295 56 191 52 185
106 188 34 2 47 -1 47 -10 0 -13 -19 -80 -85 -298 -20 -69 -45 -152 -55 -185
-10 -33 -33 -114 -53 -180 -19 -66 -58 -196 -85 -290 -27 -93 -80 -271 -117
-395 -87 -292 -113 -381 -135 -460 -11 -36 -26 -85 -34 -109 -32 -87 -52 -81
264 -81 l280 0 0 -772 c0 -514 4 -786 11 -811 27 -99 137 -160 246 -138 68 13
107 41 136 94 l22 42 3 793 3 792 49 0 49 0 3 -797 c2 -654 5 -803 17 -823 72
-131 266 -144 358 -23 l28 36 3 804 2 803 280 0 c154 0 280 4 280 9 0 4 -15
59 -34 122 -19 63 -49 164 -66 224 -18 61 -40 137 -50 170 -10 33 -35 116 -55
185 -20 69 -45 152 -55 185 -10 33 -33 110 -50 170 -17 61 -42 144 -55 185
-13 41 -38 125 -55 185 -17 61 -40 137 -50 170 -21 65 -106 361 -112 385 -2
12 8 15 47 15 l50 0 97 -325 c54 -179 109 -363 124 -410 60 -196 74 -241 109
-365 20 -71 43 -140 51 -152 20 -31 56 -53 103 -64 75 -17 183 44 197 110 3
14 7 34 9 45 2 10 -5 46 -15 80 -36 118 -133 452 -146 501 -7 28 -31 113 -55
190 -23 77 -48 163 -55 190 -30 115 -85 305 -108 375 -34 105 -67 159 -152
249 -87 93 -175 144 -274 160 -78 13 -795 13 -860 0z"/>
</g>
</svg>
